<?xml version="1.0" encoding="utf-8"?>
<!-- Generator: Adobe Illustrator 16.0.0, SVG Export Plug-In . SVG Version: 6.00 Build 0)  -->
<!DOCTYPE svg PUBLIC "-//W3C//DTD SVG 1.1//EN" "http://www.w3.org/Graphics/SVG/1.1/DTD/svg11.dtd">
<svg version="1.1" id="Layer_1" xmlns="http://www.w3.org/2000/svg" xmlns:xlink="http://www.w3.org/1999/xlink" x="0px" y="0px"
	 width="82px" height="68px" viewBox="0 0 82 68" enable-background="new 0 0 82 68" xml:space="preserve">
<g id="Layer_1_1_" display="none">
	<path display="inline" fill="#B73E5D" d="M35.796,61.434c2.102-2.156,14.099-14.465,21.601-22.158
		c6.721-6.892,6.451-16.812,0.186-22.887c-6.268-6.076-16.271-5.926-22.352,0.344c-6.23-6.114-16.237-6.014-22.348,0.221
		c-6.111,6.232-6.129,16.155,0.76,22.877C21.336,47.327,33.642,59.333,35.796,61.434z"/>
	<g display="inline">
		<g>
			<path fill="#B73E5D" d="M0,0v68h69V37.773l-3,1.449V65H3V3h63v22.803l3,1.45V0H0z"/>
			<polygon fill="#B73E5D" points="66,21.845 66,25.645 76.564,32.365 66,38.992 66,42.807 82.014,32.36 			"/>
		</g>
	</g>
</g>
<g id="Layer_2">
	<g>
		<path fill="#FFFFFF" d="M27.895,38.316v15.271c0,0.836-0.68,1.51-1.51,1.51h-4.351c-0.938,0-1.821-0.731-1.821-1.32V45.71
			c0-0.582-0.474-1.056-1.061-1.056c-0.583,0-1.055,0.474-1.055,1.056v8.067c0,0.589-0.357,1.32-1.263,1.32H11.4
			c-0.835,0-1.516-0.674-1.516-1.51V38.316c0-0.836-8.5-5.188,3.603-14.189c0,0,1.487,1.729,5.545,1.729
			c4.063,0,5.405-1.729,5.405-1.729C37.019,33.129,27.895,37.48,27.895,38.316z"/>
		<path fill="#FFFFFF" d="M26.166,59.314c0,0.613-1.209,0.686-2.702,0.686l0,0c-1.491,0-2.701-0.124-2.701-0.686v-0.07
			c0-1.492,1.21-2.702,2.701-2.702l0,0c1.493,0,2.702,1.21,2.702,2.702V59.314z"/>
		<path fill="#FFFFFF" d="M17.313,59.314c0,0.613-1.21,0.686-2.702,0.686l0,0c-1.491,0-2.701-0.124-2.701-0.686v-0.07
			c0-1.492,1.21-2.702,2.701-2.702l0,0c1.492,0,2.702,1.21,2.702,2.702V59.314z"/>
		<circle fill="#FFFFFF" cx="18.896" cy="15.983" r="8.141"/>
		<path fill="#FFFFFF" d="M56.077,39.721l4.43,14.119c0,0.803-5.083,1.451-5.88,1.451h-4.182c-0.471,0-1.567-0.643-2.637-0.643
			c-0.982,0-1.939,0.643-2.357,0.643h-5.222c-0.804,0-5.886-0.648-5.886-1.451l4.429-14.119c0-0.805-8.168-5.538,3.462-14.188
			c0,0,1.429,1.661,5.326,1.661c3.902,0,5.193-1.661,5.193-1.661C64.843,34.183,56.077,38.916,56.077,39.721z"/>
		<path fill="#FFFFFF" d="M54.416,59.342c0,0.59-1.162,0.658-2.596,0.658l0,0c-1.434,0-2.596-0.12-2.596-0.658v-0.066
			c0-1.436,1.162-2.598,2.596-2.598l0,0c1.434,0,2.596,1.162,2.596,2.598V59.342z"/>
		<path fill="#FFFFFF" d="M45.91,59.342c0,0.59-1.162,0.658-2.596,0.658l0,0c-1.434,0-2.597-0.12-2.597-0.658v-0.066
			c0-1.436,1.163-2.598,2.597-2.598l0,0c1.434,0,2.596,1.162,2.596,2.598V59.342z"/>
		<circle fill="#FFFFFF" cx="47.432" cy="17.709" r="7.822"/>
		<path fill="#FFFFFF" d="M43.734,14.45c-0.485,0.486-1.274,0.486-1.764,0l-4.269-4.271c-0.486-0.486-0.486-1.276,0-1.763l0,0
			c0.486-0.486,1.275-0.486,1.763,0l4.27,4.271C44.221,13.175,44.223,13.964,43.734,14.45L43.734,14.45z"/>
		<path fill="#FFFFFF" d="M50.993,14.45c0.485,0.486,1.274,0.486,1.762,0l4.271-4.271c0.486-0.486,0.486-1.276,0-1.763l0,0
			c-0.486-0.486-1.275-0.486-1.764,0l-4.269,4.271C50.507,13.175,50.506,13.964,50.993,14.45L50.993,14.45z"/>
	</g>
	<g>
		<path fill="#FFFFFF" d="M0,0v68h69V37.773l-3,1.449V65H3V3h63v22.803l3,1.45V0H0z"/>
		<polygon fill="#FFFFFF" points="66,21.845 66,25.645 76.564,32.365 66,38.992 66,42.807 82.014,32.36 		"/>
	</g>
</g>
</svg>
