<?xml version="1.0" encoding="utf-8"?>
<!-- Generator: Adobe Illustrator 16.0.0, SVG Export Plug-In . SVG Version: 6.00 Build 0)  -->
<!DOCTYPE svg PUBLIC "-//W3C//DTD SVG 1.1//EN" "http://www.w3.org/Graphics/SVG/1.1/DTD/svg11.dtd">
<svg version="1.1" xmlns="http://www.w3.org/2000/svg" xmlns:xlink="http://www.w3.org/1999/xlink" x="0px" y="0px" width="82px"
	 height="68px" viewBox="0 0 82 68" enable-background="new 0 0 82 68" xml:space="preserve">
<g id="Layer_1" display="none">
	<path display="inline" fill="#B73E5D" d="M35.796,61.433c2.102-2.156,14.099-14.465,21.601-22.158
		c6.72-6.891,6.45-16.811,0.185-22.887c-6.268-6.076-16.271-5.926-22.352,0.344c-6.23-6.114-16.237-6.014-22.348,0.221
		c-6.111,6.232-6.129,16.155,0.76,22.877C21.336,47.327,33.642,59.333,35.796,61.433z"/>
	<g display="inline">
		<g>
			<path fill="#B73E5D" d="M0,0v68h69V37.773l-3,1.449V65H3V3h63v22.803l3,1.45V0H0z"/>
			<polygon fill="#B73E5D" points="66,21.845 66,25.645 76.565,32.365 66,38.992 66,42.807 82.014,32.36 			"/>
		</g>
	</g>
</g>
<g id="Layer_2">
	<g>
		<g>
			<g>
				<path fill="#544B66" d="M34.217,34.496V6.635c-15.391,0-27.865,12.472-27.865,27.861c0,9.237,4.017,17.119,11.485,22.545
					L34.217,34.496z"/>
			</g>
		</g>
		<path fill="#544B66" d="M48.632,10.644L34.217,25.055v0.557l14.749-14.752C48.856,10.786,48.743,10.709,48.632,10.644z
			 M50.642,11.994L34.217,28.419v0.556l16.735-16.735C50.848,12.158,50.75,12.071,50.642,11.994z M46.47,9.44L34.217,21.695v0.551
			L46.842,9.621C46.717,9.559,46.593,9.504,46.47,9.44z M52.515,13.484l-18.298,18.3v0.556l18.588-18.591
			C52.706,13.661,52.616,13.57,52.515,13.484z M35.767,6.688l-1.55,1.551v0.559l2.088-2.089C36.128,6.697,35.944,6.7,35.767,6.688z
			 M38.834,6.987l-4.617,4.618v0.551l5.08-5.08C39.141,7.051,38.99,7.013,38.834,6.987z M44.13,8.415l-9.913,9.914v0.557
			l10.32-10.319C44.401,8.512,44.267,8.468,44.13,8.415z M55.845,16.882l-18.602,18.6l0.422,0.137l18.427-18.427
			C56.008,17.089,55.929,16.982,55.845,16.882z M41.595,7.589l-7.378,7.377v0.556l7.812-7.81C41.885,7.669,41.739,7.63,41.595,7.589
			z M54.249,15.111L34.704,34.655l0.424,0.137l19.39-19.394C54.425,15.305,54.343,15.208,54.249,15.111z M57.971,42.216l3.854-3.855
			c0.031-0.21,0.05-0.422,0.077-0.63l-4.349,4.349L57.971,42.216z M55.015,41.258l0.416,0.132l6.695-6.694
			c0.005-0.188,0.01-0.373,0.009-0.561L55.015,41.258z M60.509,43.042l0.318-0.319c0.081-0.259,0.146-0.516,0.221-0.774
			l-0.957,0.957L60.509,43.042z M57.295,18.796l-17.51,17.509l0.419,0.137L57.518,19.13C57.442,19.018,57.37,18.907,57.295,18.796z
			 M61.925,30.98l-9.448,9.448l0.419,0.14l9.09-9.093C61.969,31.311,61.946,31.146,61.925,30.98z M59.726,23.09L44.862,37.956
			l0.414,0.134l14.625-14.621C59.846,23.34,59.784,23.219,59.726,23.09z M58.591,20.859L42.319,37.13l0.42,0.136L58.79,21.215
			C58.726,21.095,58.657,20.979,58.591,20.859z M61.435,28.104L49.938,39.605l0.415,0.135l11.174-11.174
			C61.495,28.413,61.471,28.259,61.435,28.104z M60.684,25.495L47.399,38.779l0.417,0.137l13.015-13.017
			C60.787,25.762,60.731,25.632,60.684,25.495z"/>
		<path fill="#544B66" d="M42.008,37.03L20.364,58.671c0.301,0.174,0.611,0.311,0.916,0.471l21.776-21.773L42.008,37.03z
			 M47.084,38.68L24.982,60.783c0.349,0.122,0.703,0.224,1.057,0.332l22.095-22.093L47.084,38.68z M44.544,37.853L22.581,59.815
			c0.324,0.152,0.656,0.271,0.985,0.406l22.026-22.026L44.544,37.853z M34.393,34.552l-0.794,0.793l-3.679,5.067l5.517-5.518
			L34.393,34.552z M39.466,36.206L18.317,57.354c0.278,0.194,0.562,0.367,0.844,0.547l21.356-21.357L39.466,36.206z M36.93,35.38
			L24.665,47.645l-3.699,5.089L37.98,35.719L36.93,35.38z M59.773,42.8l-18.7,18.703c0.675-0.171,1.339-0.388,2.002-0.606
			l17.561-17.563c0.025-0.077,0.056-0.143,0.082-0.225L59.773,42.8z M49.62,39.503L27.57,61.552
			c0.383,0.092,0.768,0.165,1.153,0.243l21.949-21.952L49.62,39.503z M49.681,57.647l7.711-7.71
			c0.729-1.082,1.362-2.172,1.904-3.293L46.358,59.577C47.508,59.025,48.609,58.363,49.681,57.647z M57.235,41.977L37.019,62.191
			c0.523-0.053,1.049-0.09,1.569-0.173l19.7-19.7L57.235,41.977z M54.698,41.152L33.503,62.347c0.473,0.013,0.943-0.006,1.414-0.02
			L55.75,41.495L54.698,41.152z M52.156,40.327L30.386,62.096c0.425,0.06,0.849,0.083,1.273,0.123l21.552-21.548L52.156,40.327z"/>
	</g>
	<g>
		<path fill="#544B66" d="M0,0v68h69V37.773l-3,1.449V65H3V3h63v22.803l3,1.45V0H0z"/>
		<polygon fill="#544B66" points="66,21.845 66,25.645 76.565,32.365 66,38.992 66,42.807 82.014,32.36 		"/>
	</g>
</g>
</svg>
