<?xml version="1.0" encoding="utf-8"?>
<!-- Generator: Adobe Illustrator 16.0.0, SVG Export Plug-In . SVG Version: 6.00 Build 0)  -->
<!DOCTYPE svg PUBLIC "-//W3C//DTD SVG 1.1//EN" "http://www.w3.org/Graphics/SVG/1.1/DTD/svg11.dtd">
<svg version="1.1" id="Layer_1" xmlns="http://www.w3.org/2000/svg" xmlns:xlink="http://www.w3.org/1999/xlink" x="0px" y="0px"
	 width="82px" height="68px" viewBox="0 0 82 68" enable-background="new 0 0 82 68" xml:space="preserve">
<g id="Layer_1_1_" display="none">
	<path display="inline" fill="#B73E5D" d="M35.796,61.434c2.102-2.156,14.099-14.465,21.601-22.158
		c6.721-6.892,6.451-16.812,0.186-22.887c-6.268-6.076-16.271-5.926-22.352,0.344c-6.23-6.114-16.237-6.014-22.348,0.221
		c-6.111,6.232-6.129,16.155,0.76,22.877C21.336,47.327,33.642,59.333,35.796,61.434z"/>
	<g display="inline">
		<g>
			<path fill="#B73E5D" d="M0,0v68h69V37.773l-3,1.449V65H3V3h63v22.803l3,1.45V0H0z"/>
			<polygon fill="#B73E5D" points="66,21.845 66,25.645 76.564,32.365 66,38.992 66,42.807 82.014,32.36 			"/>
		</g>
	</g>
</g>
<g id="Layer_2">
	<path fill="#FFFFFF" d="M42.461,51.324c-2.065-2.066-4.783-2.156-6.49-1.534V35.098c0-14.604,10.448-17.85,10.448-17.85
		c-8.112,8.114-8.112,16.227-8.112,16.227c19.472,0,17.037-24.34,17.037-24.34c-22.372,0-23.468,13.75-23.523,22.254
		c-3.031-5.116-9.569-9.272-23.435-9.272c0,0,0,19.472,19.473,19.472c0,0,0-6.489-8.826-12.981c0,0,12.07,3.245,12.07,16.227v4.868
		c0,0-2.813-1.027-4.868,0c-3.244,1.623-5.139,2.686-6.49,3.246c-1.401,0.58-4.236,0.127-4.76,1.242
		c1.877,1.517,3.946,2.801,6.145,3.85c3.696,1.373,8.298,2.643,11.763,2.947c0.486,0.023,0.965,0.074,1.457,0.074
		c0.775,0,1.536-0.062,2.297-0.115c0.505-0.043,1.083-0.102,1.707-0.178c5.673-0.74,10.863-3.016,15.139-6.414
		c-1.108-0.717-4.79-3.029-6.161-3.029C45.707,51.324,44.084,52.947,42.461,51.324z"/>
	<g>
		<path fill="#FFFFFF" d="M0,0v68h69V37.773l-3,1.449V65H3V3h63v22.803l3,1.45V0H0z"/>
		<polygon fill="#FFFFFF" points="66,21.845 66,25.645 76.564,32.365 66,38.992 66,42.807 82.014,32.36 		"/>
	</g>
</g>
</svg>
