<?xml version="1.0" encoding="utf-8"?>
<!-- Generator: Adobe Illustrator 16.0.0, SVG Export Plug-In . SVG Version: 6.00 Build 0)  -->
<!DOCTYPE svg PUBLIC "-//W3C//DTD SVG 1.1//EN" "http://www.w3.org/Graphics/SVG/1.1/DTD/svg11.dtd">
<svg version="1.1" xmlns="http://www.w3.org/2000/svg" xmlns:xlink="http://www.w3.org/1999/xlink" x="0px" y="0px" width="82px"
	 height="68px" viewBox="0 0 82 68" enable-background="new 0 0 82 68" xml:space="preserve">
<g id="Layer_1" display="none">
	<path display="inline" fill="#B73E5D" d="M35.796,61.433c2.102-2.156,14.099-14.465,21.601-22.158
		c6.72-6.891,6.45-16.811,0.185-22.887c-6.268-6.076-16.271-5.926-22.352,0.344c-6.23-6.114-16.237-6.014-22.348,0.221
		c-6.111,6.232-6.129,16.155,0.76,22.877C21.336,47.327,33.642,59.333,35.796,61.433z"/>
	<g display="inline">
		<g>
			<path fill="#B73E5D" d="M0,0v68h69V37.773l-3,1.449V65H3V3h63v22.803l3,1.45V0H0z"/>
			<polygon fill="#B73E5D" points="66,21.845 66,25.645 76.565,32.365 66,38.992 66,42.807 82.014,32.36 			"/>
		</g>
	</g>
</g>
<g id="Layer_2">
	<g>
		<path fill="#ADCC0D" d="M27.895,38.316v15.272c0,0.836-0.68,1.509-1.51,1.509h-4.351c-0.938,0-1.821-0.731-1.821-1.319V45.71
			c0-0.582-0.474-1.055-1.061-1.055c-0.583,0-1.055,0.473-1.055,1.055v8.068c0,0.588-0.357,1.319-1.263,1.319H11.4
			c-0.835,0-1.516-0.673-1.516-1.509V38.316c0-0.836-8.5-5.188,3.603-14.189c0,0,1.487,1.729,5.545,1.729
			c4.063,0,5.405-1.729,5.405-1.729C37.019,33.129,27.895,37.48,27.895,38.316z"/>
		<path fill="#ADCC0D" d="M26.166,59.315c0,0.613-1.209,0.685-2.702,0.685l0,0c-1.491,0-2.701-0.124-2.701-0.685v-0.071
			c0-1.492,1.21-2.702,2.701-2.702l0,0c1.493,0,2.702,1.21,2.702,2.702V59.315z"/>
		<path fill="#ADCC0D" d="M17.313,59.315c0,0.613-1.21,0.685-2.702,0.685l0,0c-1.491,0-2.701-0.124-2.701-0.685v-0.071
			c0-1.492,1.21-2.702,2.701-2.702l0,0c1.492,0,2.702,1.21,2.702,2.702V59.315z"/>
		<circle fill="#ADCC0D" cx="18.896" cy="15.983" r="8.141"/>
		<path fill="#ADCC0D" d="M56.077,39.72l4.43,14.12c0,0.803-5.083,1.451-5.88,1.451h-4.182c-0.47,0-1.567-0.642-2.636-0.642
			c-0.983,0-1.94,0.642-2.358,0.642h-5.222c-0.804,0-5.886-0.648-5.886-1.451l4.429-14.12c0-0.804-8.168-5.537,3.462-14.187
			c0,0,1.429,1.661,5.326,1.661c3.903,0,5.194-1.661,5.194-1.661C64.843,34.183,56.077,38.916,56.077,39.72z"/>
		<path fill="#ADCC0D" d="M54.416,59.342c0,0.589-1.162,0.658-2.596,0.658l0,0c-1.433,0-2.596-0.12-2.596-0.658v-0.067
			c0-1.435,1.163-2.598,2.596-2.598l0,0c1.434,0,2.596,1.163,2.596,2.598V59.342z"/>
		<path fill="#ADCC0D" d="M45.91,59.342c0,0.589-1.162,0.658-2.596,0.658l0,0c-1.433,0-2.596-0.12-2.596-0.658v-0.067
			c0-1.435,1.163-2.598,2.596-2.598l0,0c1.434,0,2.596,1.163,2.596,2.598V59.342z"/>
		<circle fill="#ADCC0D" cx="47.431" cy="17.709" r="7.822"/>
		<path fill="#ADCC0D" d="M43.734,14.45c-0.485,0.486-1.274,0.486-1.763,0l-4.269-4.271c-0.486-0.486-0.486-1.276,0-1.763l0,0
			c0.486-0.486,1.275-0.486,1.763,0l4.269,4.271C44.221,13.175,44.222,13.964,43.734,14.45L43.734,14.45z"/>
		<path fill="#ADCC0D" d="M50.993,14.45c0.485,0.486,1.274,0.486,1.762,0l4.27-4.271c0.486-0.486,0.486-1.276,0-1.763l0,0
			c-0.486-0.486-1.275-0.486-1.763,0l-4.269,4.271C50.507,13.175,50.506,13.964,50.993,14.45L50.993,14.45z"/>
	</g>
	<g>
		<path fill="#ADCC0D" d="M0,0v68h69V37.773l-3,1.449V65H3V3h63v22.803l3,1.45V0H0z"/>
		<polygon fill="#ADCC0D" points="66,21.845 66,25.645 76.565,32.365 66,38.992 66,42.807 82.014,32.36 		"/>
	</g>
</g>
</svg>
