<?xml version="1.0" encoding="utf-8"?>
<!-- Generator: Adobe Illustrator 16.0.0, SVG Export Plug-In . SVG Version: 6.00 Build 0)  -->
<!DOCTYPE svg PUBLIC "-//W3C//DTD SVG 1.1//EN" "http://www.w3.org/Graphics/SVG/1.1/DTD/svg11.dtd">
<svg version="1.1" id="Layer_1" xmlns="http://www.w3.org/2000/svg" xmlns:xlink="http://www.w3.org/1999/xlink" x="0px" y="0px"
	 width="82px" height="68px" viewBox="0 0 82 68" enable-background="new 0 0 82 68" xml:space="preserve">
<g id="Layer_1_1_" display="none">
	<path display="inline" fill="#B73E5D" d="M35.796,61.434c2.102-2.156,14.099-14.465,21.601-22.158
		c6.721-6.892,6.451-16.812,0.186-22.887c-6.268-6.076-16.271-5.926-22.352,0.344c-6.23-6.114-16.237-6.014-22.348,0.221
		c-6.111,6.232-6.129,16.155,0.76,22.877C21.336,47.327,33.642,59.333,35.796,61.434z"/>
	<g display="inline">
		<g>
			<path fill="#B73E5D" d="M0,0v68h69V37.773l-3,1.449V65H3V3h63v22.803l3,1.45V0H0z"/>
			<polygon fill="#B73E5D" points="66,21.845 66,25.645 76.564,32.365 66,38.992 66,42.807 82.014,32.36 			"/>
		</g>
	</g>
</g>
<g id="Layer_2">
	<g id="Your_Icon_7_">
		<g>
			<g>
				<path fill="#FFFFFF" d="M62.025,65.998c0.127-0.006,0.256-0.035,0.377-0.094c0.49-0.229,0.701-0.813,0.473-1.303
					c-2.941-6.273-6.314-11.515-9.29-16.138c-3.626-5.633-6.489-10.082-6.626-13.522c-0.08-2.037,0.747-4.276,1.794-7.115
					c2.052-5.557,4.86-13.169,4.007-26.46c-0.035-0.54-0.486-0.961-1.041-0.916c-0.541,0.035-0.949,0.501-0.916,1.042
					c0.827,12.877-1.898,20.263-3.889,25.655c-1.123,3.043-2.01,5.445-1.914,7.871c0.156,3.979,3.148,8.625,6.936,14.51
					c2.942,4.57,6.279,9.752,9.164,15.906C61.271,65.803,61.643,66.012,62.025,65.998z"/>
			</g>
			<path fill="#FFFFFF" d="M9.772,42.252c1.409,3.383,6.115,5.684,15.26,7.465l0.347,0.066c7.491,1.459,10.594,2.063,13.056,6.656
				c0.048,0.09,0.108,0.166,0.177,0.233c0.197,0.257,0.496,0.397,0.809,0.388c0.137-0.004,0.274-0.039,0.404-0.105
				c0.482-0.244,0.676-0.834,0.432-1.318c-1.663-3.283-3.51-4.904-6.195-5.969c0.599-1.016,1.143-2.264,1.568-3.662
				c0.626-2.063,0.999-4.398,0.926-6.684c-0.103-3.258-0.979-6.451-2.198-8.799c-0.383-0.736-0.804-1.374-1.242-1.903
				c5.583-3.713,7.425-12.09,8.03-17.122c0.059-0.496-0.267-0.96-0.756-1.071c-0.486-0.114-0.982,0.162-1.146,0.637
				c-1.391,4.052-3.115,7.247-5.15,9.565c-0.055-1.131-0.312-2.317-0.782-3.478c-0.178-0.438-0.644-0.689-1.106-0.591
				c-0.464,0.095-0.792,0.509-0.781,0.981c0.101,4.531-4.396,7.234-9.059,9.741c-1.839,0.91-3.827,1.997-5.777,3.27
				c-5.607,3.658-6.734,10.226-6.862,11.109C9.68,41.85,9.691,42.057,9.772,42.252z M32.104,32.095
				c1.422-0.246,3.328,5.717,1.205,6.258C31.574,38.795,30.45,32.381,32.104,32.095z M12.632,41.785
				c2.44-5.43,9.013-8.522,14.468-10.615c-0.664,2.266-1.039,5.197-0.931,8.389c0.106,3.272,0.658,6.223,1.509,8.459
				c-0.436-0.086-0.885-0.174-1.35-0.263C18.439,46.219,13.955,44.262,12.632,41.785z"/>
		</g>
	</g>
	<g>
		<path fill="#FFFFFF" d="M0,0v68h69V37.773l-3,1.449V65H3V3h63v22.803l3,1.45V0H0z"/>
		<polygon fill="#FFFFFF" points="66,21.845 66,25.645 76.564,32.365 66,38.992 66,42.807 82.014,32.36 		"/>
	</g>
</g>
</svg>
