<?xml version="1.0" encoding="utf-8"?>
<!-- Generator: Adobe Illustrator 16.0.0, SVG Export Plug-In . SVG Version: 6.00 Build 0)  -->
<!DOCTYPE svg PUBLIC "-//W3C//DTD SVG 1.1//EN" "http://www.w3.org/Graphics/SVG/1.1/DTD/svg11.dtd">
<svg version="1.1" id="Layer_1" xmlns="http://www.w3.org/2000/svg" xmlns:xlink="http://www.w3.org/1999/xlink" x="0px" y="0px"
	 width="82px" height="68px" viewBox="0 0 82 68" enable-background="new 0 0 82 68" xml:space="preserve">
<path fill="#B73E5D" d="M35.796,61.433c2.102-2.156,14.099-14.465,21.601-22.158c6.72-6.891,6.45-16.811,0.185-22.887
	c-6.268-6.076-16.271-5.926-22.352,0.344c-6.23-6.114-16.237-6.014-22.348,0.221c-6.111,6.232-6.129,16.155,0.76,22.877
	C21.336,47.327,33.642,59.333,35.796,61.433z"/>
<g>
	<g>
		<path fill="#B73E5D" d="M0,0v68h69V37.773l-3,1.449V65H3V3h63v22.803l3,1.45V0H0z"/>
		<polygon fill="#B73E5D" points="66,21.845 66,25.645 76.565,32.365 66,38.992 66,42.807 82.014,32.36 		"/>
	</g>
</g>
</svg>
