<?xml version="1.0" encoding="utf-8"?>
<!-- Generator: Adobe Illustrator 16.0.0, SVG Export Plug-In . SVG Version: 6.00 Build 0)  -->
<!DOCTYPE svg PUBLIC "-//W3C//DTD SVG 1.1//EN" "http://www.w3.org/Graphics/SVG/1.1/DTD/svg11.dtd">
<svg version="1.1" id="Layer_1" xmlns="http://www.w3.org/2000/svg" xmlns:xlink="http://www.w3.org/1999/xlink" x="0px" y="0px"
	 width="82px" height="68px" viewBox="0 0 82 68" enable-background="new 0 0 82 68" xml:space="preserve">
<g id="Layer_1_1_" display="none">
	<path display="inline" fill="#B73E5D" d="M35.796,61.434c2.102-2.156,14.099-14.465,21.601-22.158
		c6.721-6.892,6.451-16.812,0.186-22.887c-6.268-6.076-16.271-5.926-22.352,0.344c-6.23-6.114-16.237-6.014-22.348,0.221
		c-6.111,6.232-6.129,16.155,0.76,22.877C21.336,47.327,33.642,59.333,35.796,61.434z"/>
	<g display="inline">
		<g>
			<path fill="#B73E5D" d="M0,0v68h69V37.773l-3,1.449V65H3V3h63v22.803l3,1.45V0H0z"/>
			<polygon fill="#B73E5D" points="66,21.845 66,25.645 76.564,32.365 66,38.992 66,42.807 82.014,32.36 			"/>
		</g>
	</g>
</g>
<g id="Layer_2">
	<g>
		<g>
			<g>
				<path fill="#FFFFFF" d="M34.217,34.496V6.635c-15.391,0-27.865,12.472-27.865,27.861c0,9.236,4.017,17.119,11.485,22.545
					L34.217,34.496z"/>
			</g>
		</g>
		<path fill="#FFFFFF" d="M48.632,10.644L34.217,25.055v0.557L48.966,10.86C48.855,10.786,48.743,10.709,48.632,10.644z
			 M50.643,11.994L34.217,28.419v0.556L50.952,12.24C50.848,12.158,50.75,12.071,50.643,11.994z M46.471,9.44L34.217,21.695v0.551
			L46.842,9.621C46.717,9.559,46.593,9.504,46.471,9.44z M52.516,13.484l-18.299,18.3v0.556l18.588-18.591
			C52.706,13.661,52.616,13.57,52.516,13.484z M35.767,6.688l-1.55,1.551v0.559l2.088-2.089C36.128,6.697,35.944,6.7,35.767,6.688z
			 M38.834,6.987l-4.617,4.618v0.551l5.08-5.08C39.141,7.051,38.99,7.013,38.834,6.987z M44.13,8.415l-9.913,9.914v0.557
			l10.32-10.319C44.4,8.512,44.268,8.468,44.13,8.415z M55.846,16.882L37.243,35.482l0.422,0.137l18.427-18.427
			C56.008,17.089,55.93,16.982,55.846,16.882z M41.596,7.589l-7.379,7.377v0.556l7.813-7.81C41.885,7.669,41.738,7.63,41.596,7.589z
			 M54.249,15.111L34.704,34.654l0.424,0.138l19.39-19.394C54.425,15.305,54.343,15.208,54.249,15.111z M57.971,42.216l3.854-3.854
			c0.03-0.211,0.05-0.422,0.077-0.631l-4.35,4.35L57.971,42.216z M55.016,41.258l0.416,0.133l6.694-6.695
			c0.005-0.188,0.011-0.373,0.009-0.56L55.016,41.258z M60.509,43.042l0.318-0.319c0.081-0.259,0.146-0.516,0.221-0.773
			l-0.957,0.957L60.509,43.042z M57.295,18.796l-17.51,17.509l0.419,0.137L57.518,19.13C57.441,19.018,57.37,18.907,57.295,18.796z
			 M61.925,30.98l-9.448,9.448l0.42,0.141l9.09-9.093C61.969,31.311,61.945,31.146,61.925,30.98z M59.727,23.09L44.861,37.956
			l0.414,0.134L59.9,23.469C59.846,23.34,59.784,23.219,59.727,23.09z M58.591,20.859L42.318,37.13l0.42,0.136L58.79,21.215
			C58.727,21.095,58.657,20.979,58.591,20.859z M61.436,28.104L49.938,39.605l0.416,0.135l11.174-11.174
			C61.495,28.413,61.471,28.259,61.436,28.104z M60.684,25.495L47.398,38.779l0.418,0.137l13.015-13.017
			C60.787,25.762,60.73,25.632,60.684,25.495z"/>
		<path fill="#FFFFFF" d="M42.008,37.029L20.364,58.671c0.301,0.175,0.611,0.312,0.916,0.472l21.777-21.773L42.008,37.029z
			 M47.084,38.68L24.982,60.783c0.349,0.121,0.703,0.224,1.057,0.332l22.095-22.094L47.084,38.68z M44.544,37.854L22.581,59.814
			c0.324,0.152,0.656,0.271,0.985,0.406l22.026-22.025L44.544,37.854z M34.393,34.553l-0.794,0.793l-3.679,5.066l5.517-5.518
			L34.393,34.553z M39.466,36.206L18.317,57.354c0.278,0.194,0.562,0.367,0.844,0.547l21.356-21.356L39.466,36.206z M36.93,35.38
			L24.665,47.645l-3.699,5.09L37.98,35.719L36.93,35.38z M59.773,42.8l-18.7,18.703c0.675-0.171,1.339-0.388,2.002-0.606
			l17.562-17.563c0.024-0.077,0.055-0.143,0.081-0.225L59.773,42.8z M49.62,39.503l-22.05,22.05
			c0.383,0.092,0.768,0.164,1.153,0.242l21.949-21.951L49.62,39.503z M49.682,57.646l7.711-7.709
			c0.729-1.082,1.361-2.172,1.903-3.293L46.357,59.577C47.508,59.025,48.609,58.363,49.682,57.646z M57.234,41.977L37.019,62.191
			c0.523-0.053,1.049-0.09,1.569-0.174l19.7-19.699L57.234,41.977z M54.698,41.152L33.503,62.348
			c0.473,0.012,0.943-0.007,1.414-0.021L55.75,41.495L54.698,41.152z M52.156,40.327l-21.77,21.769
			c0.425,0.061,0.849,0.084,1.273,0.123l21.552-21.548L52.156,40.327z"/>
	</g>
	<g>
		<path fill="#FFFFFF" d="M0,0v68h69V37.773l-3,1.449V65H3V3h63v22.803l3,1.45V0H0z"/>
		<polygon fill="#FFFFFF" points="66,21.845 66,25.645 76.564,32.365 66,38.992 66,42.807 82.014,32.36 		"/>
	</g>
</g>
</svg>
