<?xml version="1.0" encoding="utf-8"?>
<!-- Generator: Adobe Illustrator 16.0.0, SVG Export Plug-In . SVG Version: 6.00 Build 0)  -->
<!DOCTYPE svg PUBLIC "-//W3C//DTD SVG 1.1//EN" "http://www.w3.org/Graphics/SVG/1.1/DTD/svg11.dtd">
<svg version="1.1" xmlns="http://www.w3.org/2000/svg" xmlns:xlink="http://www.w3.org/1999/xlink" x="0px" y="0px" width="82px"
	 height="68px" viewBox="0 0 82 68" enable-background="new 0 0 82 68" xml:space="preserve">
<g id="Layer_1" display="none">
	<path display="inline" fill="#B73E5D" d="M35.796,61.433c2.102-2.156,14.099-14.465,21.601-22.158
		c6.72-6.891,6.45-16.811,0.185-22.887c-6.268-6.076-16.271-5.926-22.352,0.344c-6.23-6.114-16.237-6.014-22.348,0.221
		c-6.111,6.232-6.129,16.155,0.76,22.877C21.336,47.327,33.642,59.333,35.796,61.433z"/>
	<g display="inline">
		<g>
			<path fill="#B73E5D" d="M0,0v68h69V37.773l-3,1.449V65H3V3h63v22.803l3,1.45V0H0z"/>
			<polygon fill="#B73E5D" points="66,21.845 66,25.645 76.565,32.365 66,38.992 66,42.807 82.014,32.36 			"/>
		</g>
	</g>
</g>
<g id="Layer_2">
	<path fill="#CF3A4D" d="M51.083,13.75c-1.532-0.84-2.323,0.348-2.722,0.891c-0.396,0.545-5.343,8.264-5.343,8.264
		s-0.547,0.148-0.396-0.643c0.147-0.793,2.671-11.283,2.671-11.283s0.644-3.512-0.988-3.76c-1.632-0.246-2.128,0.939-2.423,2.029
		c-0.299,1.089-3.217,11.38-3.217,11.38s-0.842,1.14-0.89-0.147c-0.049-1.289-0.247-12.371-0.247-12.371s0.198-3.316-2.079-3.119
		c-2.275,0.199-2.027,2.328-2.027,2.328l0.196,12.865c0,0-0.891,1.432-1.288,0.197C31.937,19.143,28.324,9.1,28.324,9.1
		s-0.692-1.535-2.374-0.892c-1.683,0.644-1.04,2.522-1.04,2.522l3.216,11.084c0,0,0.297,0.941,0.297,1.879
		c0,0.941-0.447,3.218-0.447,3.218l-0.371,0.86c-0.03,0-0.059-0.002-0.09-0.002c0,0,0.031,0.002,0.089,0.006l-0.089,0.201
		c-0.24,0.008-0.379,0.025-0.379,0.025c-3.757-6.039-9.101-5.643-9.101-5.643s-1.979,0.595-1.381,1.979
		c0.594,1.386,0.989,0.397,3.562,2.869c2.572,2.476,3.464,4.948,3.859,5.839c0.396,0.893,2.079,3.563,3.859,4.65
		c1.779,1.092,2.671,1.685,2.671,1.685l-0.872,26.95l12.956-1.131l-1.004-25.225c0,0,3.267-1.881,4.254-8.709l0.247-5.049
		c0,0-0.048-0.396,0.295-1.039c0.349-0.643,4.107-7.224,4.107-7.224S52.616,14.592,51.083,13.75z M36.34,34.335
		c-0.104-0.248-0.209-0.479-0.319-0.709c-1.746-5.267-7.631-5.804-8.416-5.851l0.001-0.002C36.729,27.708,36.34,34.335,36.34,34.335
		z"/>
	<g>
		<g>
			<path fill="#CF3A4D" d="M0,0v68h69V37.773l-3,1.449V65H3V3h63v22.803l3,1.45V0H0z"/>
			<polygon fill="#CF3A4D" points="66,21.845 66,25.645 76.563,32.365 66,38.992 66,42.807 82.011,32.36 			"/>
		</g>
	</g>
</g>
</svg>
