<?xml version="1.0" encoding="utf-8"?>
<!-- Generator: Adobe Illustrator 16.0.0, SVG Export Plug-In . SVG Version: 6.00 Build 0)  -->
<!DOCTYPE svg PUBLIC "-//W3C//DTD SVG 1.1//EN" "http://www.w3.org/Graphics/SVG/1.1/DTD/svg11.dtd">
<svg version="1.1" xmlns="http://www.w3.org/2000/svg" xmlns:xlink="http://www.w3.org/1999/xlink" x="0px" y="0px" width="82px"
	 height="68px" viewBox="0 0 82 68" enable-background="new 0 0 82 68" xml:space="preserve">
<g id="Layer_1" display="none">
	<path display="inline" fill="#B73E5D" d="M35.796,61.433c2.102-2.156,14.099-14.465,21.601-22.158
		c6.72-6.891,6.45-16.811,0.185-22.887c-6.268-6.076-16.271-5.926-22.352,0.344c-6.23-6.114-16.237-6.014-22.348,0.221
		c-6.111,6.232-6.129,16.155,0.76,22.877C21.336,47.327,33.642,59.333,35.796,61.433z"/>
	<g display="inline">
		<g>
			<path fill="#B73E5D" d="M0,0v68h69V37.773l-3,1.449V65H3V3h63v22.803l3,1.45V0H0z"/>
			<polygon fill="#B73E5D" points="66,21.845 66,25.645 76.565,32.365 66,38.992 66,42.807 82.014,32.36 			"/>
		</g>
	</g>
</g>
<g id="Layer_2">
	<path fill="#63A2E0" d="M7.257,32.571c0,12.797,11.944,23.16,26.656,23.16c3.497,0,6.815-0.581,9.881-1.645
		c4.271,2.338,8.074,3.932,13.166,4.932c1.521,0.312,2.127,0.281,2.258,0.094c0.15-0.223-0.35-0.656-0.792-1.014
		c-4.93-3.85-5.754-5.863-6.946-8.122c5.576-4.221,9.091-10.46,9.091-17.405c0-12.797-11.925-23.174-26.657-23.174
		C19.201,9.396,7.257,19.774,7.257,32.571z"/>
	<g>
		<path fill="#63A2E0" d="M0,0v68h69V37.773l-3,1.449V65H3V3h63v22.803l3,1.45V0H0z"/>
		<polygon fill="#63A2E0" points="66,21.845 66,25.645 76.565,32.365 66,38.992 66,42.807 82.014,32.36 		"/>
	</g>
</g>
</svg>
