<?xml version="1.0" encoding="utf-8"?>
<!-- Generator: Adobe Illustrator 17.0.2, SVG Export Plug-In . SVG Version: 6.00 Build 0)  -->
<!DOCTYPE svg PUBLIC "-//W3C//DTD SVG 1.1//EN" "http://www.w3.org/Graphics/SVG/1.1/DTD/svg11.dtd">
<svg version="1.1" id="Layer_1" xmlns="http://www.w3.org/2000/svg" xmlns:xlink="http://www.w3.org/1999/xlink" x="0px" y="0px"
	 width="385px" height="135.333px" viewBox="0 0 385 135.333" enable-background="new 0 0 385 135.333" xml:space="preserve">
<g>
	<g>
		<path fill="#2A8BFF" d="M106.128,67.412c-0.151-0.521-0.473-1.004-0.712-1.488c-0.236-0.479-0.472-0.957-0.708-1.436
			c-0.905-1.835-1.81-3.671-2.715-5.506c-0.155-0.464-0.454-0.922-0.671-1.361c-0.212-0.431-0.406-0.856-0.351-1.35
			c0.032-0.284,0.153-0.58,0.221-0.859c0.071-0.288,0.136-0.578,0.198-0.868c0.237-1.124,0.403-2.264,0.474-3.411
			c0.025-0.409,0.039-0.819,0.039-1.229c0-20.293-16.451-36.743-36.743-36.743S28.417,29.61,28.417,49.902
			c0,6.738,1.469,12.715,4.055,17.797l-1.89-0.098v23.494v2.182v1.422l3.113-2.238l2.894,2.238l3.057-2.129l2.839,2.129l2.73-2.295
			l2.766,2.163v9.144l34.359-0.874V91.654c0.687,0.179,1.374,0.357,2.06,0.536c1.532,0.398,3.171,0.604,4.755,0.552
			c2.495-0.083,5.037-1.676,5.289-4.371c0.113-1.204,0.199-2.395,0.383-3.606c0.052-0.339,0.101-0.679,0.155-1.017
			c0.381-0.338,0.761-0.677,1.142-1.015c0.291-0.258,0.581-0.517,0.872-0.775c0.108-0.096,0.286-0.204,0.366-0.323
			c0.429-0.639-0.394-1.538-0.708-2.062c-0.051-0.085-0.717-1.29-0.765-1.274c0.721-0.244,1.441-0.488,2.161-0.731
			c0.504-0.171,1.01-0.336,1.512-0.512c0.595-0.209,0.658-0.695,0.471-1.261c-0.141-0.426-0.282-0.852-0.422-1.278
			c-0.276-0.835-0.551-1.67-0.82-2.507c-0.06-0.188-0.035-0.349,0.048-0.488c0.338-0.564,1.635-0.772,2.12-0.928
			c1.053-0.341,2.106-0.681,3.159-1.022c0.559-0.186,1.284-0.272,1.678-0.744C106.087,68.476,106.257,67.859,106.128,67.412z"/>
	</g>
	<g>
		<line fill="#FFFFFF" x1="82.339" y1="102.836" x2="2.31" y2="102.836"/>
		<rect x="2.31" y="101.526" fill="#2A8BFF" width="80.029" height="2.621"/>
	</g>
	<g>
		<rect x="2.31" y="2.311" fill="#FFFFFF" width="65.805" height="65.805"/>
		<path fill="#2A8BFF" d="M69.426,69.426H1V1h68.426V69.426z M3.621,66.805h63.185V3.621H3.621V66.805z"/>
	</g>
	<g>
		<polygon fill="#FFFFFF" points="65.16,28.502 76.785,35.213 65.16,41.925 		"/>
	</g>
	<g>
		<polyline fill="#FFFFFF" points="56.542,55.156 13.885,55.156 13.885,15.27 		"/>
		<polygon fill="#CCCCCC" points="56.542,56.466 12.574,56.466 12.574,15.27 15.195,15.27 15.195,53.846 56.542,53.846 		"/>
	</g>
	<g>
		<rect x="13.807" y="23.024" fill="#CCCCCC" width="39.279" height="0.874"/>
	</g>
	<g>
		<rect x="13.807" y="33.358" fill="#CCCCCC" width="39.279" height="0.874"/>
	</g>
	<g>
		<rect x="12.903" y="43.693" fill="#CCCCCC" width="40.182" height="0.874"/>
	</g>
	<g>
		<rect x="45.11" y="16.122" fill="#CCCCCC" width="0.874" height="39.034"/>
	</g>
	<g>
		<rect x="34.776" y="16.122" fill="#CCCCCC" width="0.874" height="39.034"/>
	</g>
	<g>
		<rect x="24.442" y="16.122" fill="#CCCCCC" width="0.874" height="38.215"/>
	</g>
	<g>
		<circle fill="#FF5443" cx="31.75" cy="44.029" r="2.104"/>
	</g>
	<g>
		<circle fill="#FF5443" cx="46.234" cy="27.789" r="2.104"/>
	</g>
	<g>
		<circle fill="#FF5443" cx="35.601" cy="33.795" r="2.104"/>
	</g>
	<g>
		<circle fill="#FF5443" cx="21.347" cy="46.133" r="2.104"/>
	</g>
</g>
<g>
	<g>
		<path fill="#ADCC0D" d="M375.58,72.47c0.12-0.155,0.32-0.27,0.642-0.33c0.592-0.11,1.221-0.122,1.82-0.182
			c1.444-0.144,2.889-0.289,4.333-0.433c0.524-0.052,1.572,0.099,1.768-0.582c0.09-0.314-0.174-0.815-0.276-1.129
			c-0.314-0.966-0.627-1.933-0.941-2.899c-0.819-2.524-1.638-5.047-2.457-7.571c-0.611-1.882-1.222-3.764-1.832-5.646
			c-0.062-0.191-0.124-0.381-0.185-0.572c0.092-1.063,0.149-2.136,0.149-3.223c0-20.293-16.451-36.743-36.743-36.743
			c-20.293,0-36.743,16.451-36.743,36.743c0,14.085,7.929,26.313,19.564,32.48v20.453h34.359v-9.589
			c0.386,0.128,0.772,0.256,1.157,0.384c1.27,0.421,2.541,0.843,3.811,1.264c0.6,0.199,1.2,0.398,1.8,0.597
			c0.625,0.207,1.173,0.432,1.792,0.046c1.177-0.735,2.354-1.47,3.531-2.205c0.57-0.356,1.149-0.701,1.712-1.068
			c0.743-0.484,0.498-1.247,0.391-2.001c-0.099-0.697-0.198-1.393-0.297-2.09c-0.074-0.523-0.149-1.046-0.223-1.569
			c-0.065-0.455-0.224-0.925,0.092-1.325c0.417-0.527,1.073-0.963,1.576-1.41c0.38-0.338,0.802-0.605,0.658-1.176
			c-0.126-0.498-0.52-0.889-0.778-1.319c-0.266-0.443-0.532-0.887-0.798-1.33c0.513-0.285,1.025-0.569,1.538-0.854
			c0.296-0.164,0.749-0.322,0.95-0.606c0.204-0.289,0.144-0.693,0.097-1.02c-0.082-0.568-0.164-1.136-0.246-1.704
			c-0.099-0.684-0.197-1.368-0.296-2.053C375.427,73.278,375.333,72.789,375.58,72.47z"/>
	</g>
	<g>
		<rect x="279.008" y="2.311" fill="#FFFFFF" width="65.805" height="65.805"/>
		<path fill="#ADCC0D" d="M346.123,69.426h-68.426V1h68.426V69.426z M280.318,66.805h63.185V3.621h-63.185V66.805z"/>
	</g>
	<g>
		<rect x="289.927" y="39.579" fill="#CCCCCC" width="43.967" height="19.181"/>
	</g>
	<g>
		<line fill="#FFFFFF" x1="359.036" y1="102.836" x2="279.008" y2="102.836"/>
		<rect x="279.007" y="101.526" fill="#ADCC0D" width="80.029" height="2.621"/>
	</g>
	<g>
		<polygon fill="#FFFFFF" points="341.857,28.502 353.482,35.213 341.857,41.925 		"/>
	</g>
	<g>
		<path fill="#CCCCCC" d="M311.91,19.274c-5.996,0-10.857,4.861-10.857,10.857h21.713C322.767,24.134,317.906,19.274,311.91,19.274z
			"/>
	</g>
	<g>
		<rect x="295.168" y="29.877" fill="#CCCCCC" width="33.485" height="28.884"/>
	</g>
	<g>
		<rect x="291.092" y="28.82" fill="#FFFFFF" width="44.258" height="2.621"/>
	</g>
	<g>
		<rect x="282.938" y="53.954" fill="#FFFFFF" width="57.652" height="2.621"/>
	</g>
	<g>
		<rect x="300.991" y="36.05" fill="#FFFFFF" width="5.241" height="18.523"/>
	</g>
	<g>
		<rect x="309.144" y="36.05" fill="#FFFFFF" width="5.241" height="18.523"/>
	</g>
	<g>
		<rect x="317.297" y="36.064" fill="#FFFFFF" width="5.241" height="18.523"/>
	</g>
	<g>
		<rect x="327.343" y="28.288" fill="#FFFFFF" width="2.621" height="26.976"/>
	</g>
	<g>
		<rect x="293.857" y="28.288" fill="#FFFFFF" width="2.621" height="26.976"/>
	</g>
	<g>
		<polygon fill="#FF5443" points="312.784,10.738 322.247,13.695 312.784,16.653 		"/>
	</g>
	<g>
		<line fill="#FFFFFF" x1="311.91" y1="10.738" x2="311.91" y2="25.879"/>
		<rect x="310.6" y="10.738" fill="#CCCCCC" width="2.621" height="15.141"/>
	</g>
	<g>
		<polygon fill="#ADCC0D" points="344.638,10.738 364.467,8.197 362.938,13.159 371.892,15.159 369.053,19.274 374.294,23.484 
			365.777,29.943 344.813,20.308 		"/>
	</g>
</g>
<g>
	<g>
		<line fill="#FFFFFF" x1="220.521" y1="102.836" x2="140.492" y2="102.836"/>
		<rect x="140.492" y="101.526" fill="#5B5699" width="80.029" height="2.621"/>
	</g>
	<g>
		<path fill="#5B5699" d="M237.369,75.126c0.432-0.64,1.828-1.005,2.33-1.216c0.76-0.32,1.519-0.639,2.279-0.959
			c0.553-0.232,1.086-0.525,1.65-0.728c0.565-0.204,1.177-0.467,1.457-1.035c0.635-1.284-0.101-2.512-0.5-3.738
			c-0.446-1.373-0.891-2.746-1.337-4.119c-0.866-2.67-1.733-5.34-2.599-8.009c-0.309-0.952-0.558-1.806-0.543-2.813
			c0.013-0.863-0.021-1.739-0.021-2.607c0-7.752-2.407-14.939-6.505-20.867c0.581-1.019,0.918-2.196,0.918-3.453
			c0-3.859-3.129-6.988-6.988-6.988c-0.789,0-1.545,0.137-2.252,0.378c-0.56-3.299-3.424-5.813-6.882-5.813
			c-1.333,0-2.574,0.38-3.634,1.027c-1.047-2.539-3.544-4.328-6.461-4.328c-2.515,0-4.713,1.333-5.944,3.326
			c-19.827,0.534-35.739,16.762-35.739,36.718c0,4.9,0.967,9.572,2.708,13.847c-0.488-0.108-0.993-0.169-1.513-0.169
			c-3.859,0-6.988,3.129-6.988,6.988s3.129,6.988,6.988,6.988c0.068,0,0.134-0.008,0.201-0.01c-0.127,0.527-0.201,1.074-0.201,1.639
			c0,3.859,3.129,6.988,6.988,6.988c0.943,0,1.842-0.189,2.663-0.528c0.181,3.698,3.228,6.643,6.971,6.643
			c0.604,0,1.188-0.085,1.747-0.229v10.777h34.359v-8.345c0.784,0.289,1.569,0.577,2.353,0.866c0.96,0.353,1.816,0.767,2.852,0.841
			c0.962,0.069,1.953-0.026,2.887-0.266c2.114-0.543,3.948-1.882,4.862-3.911c0.588-1.306,0.709-3.019,0.65-4.432
			c-0.029-0.686-0.057-1.371-0.086-2.057c0-0.004-0.005-0.036-0.002-0.039c0.386-0.343,0.771-0.685,1.157-1.028
			c0.297-0.264,0.911-0.581,1.021-0.986c0.122-0.453,0.034-1.112-0.137-1.545c-0.067-0.17-1.14-1.886-1.132-1.891
			c0.416-0.231,0.832-0.462,1.248-0.693c0.427-0.237,0.939-0.415,1.258-0.804c0.353-0.43,0.11-0.778,0.039-1.265
			c-0.083-0.567-0.214-1.151-0.249-1.723C237.231,75.403,237.279,75.259,237.369,75.126z"/>
	</g>
	<g>
		<rect x="140.492" y="2.311" fill="#FFFFFF" width="65.805" height="65.805"/>
		<path fill="#5B5699" d="M207.608,69.426h-68.426V1h68.426V69.426z M141.803,66.805h63.185V3.621h-63.185V66.805z"/>
	</g>
	<g>
		<polygon fill="#FFFFFF" points="203.342,28.502 214.967,35.213 203.342,41.925 		"/>
	</g>
	<g>
		
			<rect x="152.359" y="12.06" transform="matrix(0.9393 -0.3432 0.3432 0.9393 1.3818 57.0753)" fill="#CCCCCC" width="19.185" height="25.147"/>
	</g>
	<g>
		<polygon fill="#FF5443" points="170.77,40.488 169.678,43.873 168.363,42.18 		"/>
	</g>
	<g>
		<polygon fill="#FF5443" points="167.47,39.735 164.105,50.044 176.921,49.688 171.648,61.707 188.568,61.707 198.177,33.443 
			193.08,19.182 188.277,16.653 187.262,20.148 189.649,21.566 193.08,33.856 189.733,43.376 169.207,46.199 		"/>
	</g>
	<g>
		<line fill="#FFFFFF" x1="165.539" y1="34.45" x2="172.185" y2="52.642"/>
		
			<rect x="159.178" y="42.236" transform="matrix(0.3432 0.9393 -0.9393 0.3432 151.8107 -130.0052)" fill="#CCCCCC" width="19.368" height="2.62"/>
	</g>
	<g>
		<polyline fill="#FF5443" points="189.442,44.707 185.948,32.269 178.668,34.45 178.668,40.444 181.141,40.444 182.163,45.325 		
			"/>
	</g>
	<g>
		<polygon fill="#FF5443" points="164.105,50.044 167.127,38.797 170.77,40.488 		"/>
	</g>
</g>
<g>
	<path fill="#5B5699" d="M18.575,126.422c0,4.719-3.647,7.546-8.132,7.546s-8.132-2.828-8.132-7.546
		c0-4.622,3.666-7.625,8.132-7.625S18.575,121.8,18.575,126.422z M7.692,126.5c0,1.677,1.132,2.828,2.751,2.828
		s2.749-1.15,2.749-2.828c0-1.561-1.052-2.867-2.749-2.867S7.692,124.939,7.692,126.5z"/>
</g>
<g>
	<path fill="#5B5699" d="M20.464,119.03h6.767c3.433,0,5.967,1.755,5.967,5.403c0,3.002-1.871,4.875-4.856,4.875h-2.73v4.427h-5.148
		V119.03z M25.612,125.602h0.526c0.936,0,1.951-0.156,1.951-1.345c0-1.151-1.092-1.209-1.97-1.209h-0.507V125.602z"/>
</g>
<g>
	<path fill="#5B5699" d="M34.58,119.03h9.886v4.018h-4.504v1.404h4.115v3.822h-4.115v1.444h4.66v4.017H34.58V119.03z"/>
</g>
<g>
	<path fill="#5B5699" d="M46.746,119.03h5.129l4.797,8.152h0.156c-0.213-1.229-0.448-2.496-0.448-3.744v-4.408h5.11v14.704h-5.11
		l-4.7-7.722h-0.156c0.177,1.014,0.332,1.969,0.332,2.944v4.778h-5.11V119.03z"/>
</g>
<g>
	<path fill="#5B5699" d="M71.976,119.03h5.207l-0.116,6.377h0.116c0.118-0.604,0.448-1.131,0.741-1.657l2.574-4.72h5.832
		l-4.603,7.157l5.089,7.547h-6.201l-2.536-4.446c-0.312-0.566-0.779-1.111-0.897-1.716h-0.116l0.116,6.162h-5.207V119.03z"/>
</g>
<g>
	<path fill="#5B5699" d="M87.867,119.03h5.129l4.797,8.152h0.156c-0.213-1.229-0.448-2.496-0.448-3.744v-4.408h5.11v14.704H97.5
		l-4.7-7.722h-0.156c0.177,1.014,0.332,1.969,0.332,2.944v4.778h-5.11V119.03z"/>
</g>
<g>
	<path fill="#5B5699" d="M120.685,126.422c0,4.719-3.647,7.546-8.132,7.546c-4.485,0-8.132-2.828-8.132-7.546
		c0-4.622,3.666-7.625,8.132-7.625S120.685,121.8,120.685,126.422z M109.802,126.5c0,1.677,1.132,2.828,2.751,2.828
		s2.749-1.15,2.749-2.828c0-1.561-1.052-2.867-2.749-2.867C110.857,123.633,109.802,124.939,109.802,126.5z"/>
</g>
<g>
	<path fill="#5B5699" d="M125.977,119.03l1.852,8.775h0.118c0.097-0.897,0.215-1.832,0.448-2.71l1.56-6.066h4.096l2.008,8.775h0.118
		c0.078-0.858,0.175-1.754,0.37-2.593l1.482-6.182h5.558l-5.188,14.704h-4.66l-1.677-7.996h-0.175
		c-0.059,0.761-0.099,1.502-0.273,2.224l-1.482,5.772h-4.544l-5.148-14.704H125.977z"/>
</g>
<g>
	<path fill="#5B5699" d="M144.754,119.03h5.344v9.985h4.485v4.72h-9.829V119.03z"/>
</g>
<g>
	<path fill="#5B5699" d="M155.966,119.03h9.888v4.018h-4.506v1.404h4.116v3.822h-4.116v1.444h4.662v4.017h-10.043V119.03z"/>
</g>
<g>
	<path fill="#5B5699" d="M168.249,119.03h5.441c4.935,0,8.717,2.165,8.717,7.567c0,4.368-3.081,7.137-7.392,7.137h-6.767V119.03z
		 M173.593,129.327h0.332c1.774,0,3.138-0.819,3.138-2.75c0-2.067-1.189-2.944-3.138-2.944h-0.332V129.327z"/>
</g>
<g>
	<path fill="#5B5699" d="M199.878,125.076c-0.04,2.398-0.04,4.407-1.774,6.279c-1.56,1.696-3.959,2.613-6.24,2.613
		c-4.485,0-8.113-2.769-8.113-7.488c0-4.797,3.53-7.683,8.151-7.683c2.555,0,6.066,1.268,7.217,3.783l-4.992,1.833
		c-0.41-0.741-1.17-1.131-2.029-1.131c-1.911,0-2.964,1.638-2.964,3.413c0,1.619,1.013,3.14,2.749,3.14
		c0.838,0,1.911-0.39,2.166-1.287h-2.418v-3.472H199.878z"/>
</g>
<g>
	<path fill="#5B5699" d="M201.63,119.03h9.888v4.018h-4.506v1.404h4.116v3.822h-4.116v1.444h4.662v4.017H201.63V119.03z"/>
</g>
<g>
	<path fill="#FF5443" d="M221.985,119.03h9.848v4.212h-4.464v1.522h3.919v3.822h-3.919v5.148h-5.384V119.03z"/>
</g>
<g>
	<path fill="#FF5443" d="M233.646,119.03h9.888v4.018h-4.506v1.404h4.116v3.822h-4.116v1.444h4.662v4.017h-10.043V119.03z"/>
</g>
<g>
	<path fill="#FF5443" d="M246.769,128.469l0.272,0.214c0.956,0.742,2.107,1.346,3.336,1.346c0.526,0,1.364-0.215,1.364-0.878
		c0-0.663-0.701-0.721-1.189-0.819l-1.072-0.195c-2.088-0.371-3.843-1.599-3.843-3.901c0-3.491,3.18-5.441,6.377-5.441
		c1.677,0,3.218,0.409,4.662,1.287l-1.444,3.764c-0.917-0.624-1.951-1.112-3.1-1.112c-0.469,0-1.151,0.176-1.151,0.781
		c0,0.545,0.663,0.624,1.073,0.721l1.208,0.274c2.262,0.507,3.9,1.715,3.9,4.212c0,3.511-3.197,5.246-6.377,5.246
		c-1.852,0-3.997-0.506-5.655-1.345L246.769,128.469z"/>
</g>
<g>
	<path fill="#FF5443" d="M257.804,119.03h11.233v4.779l-2.944-0.137v10.062h-5.344v-10.062l-2.944,0.137V119.03z"/>
</g>
<g>
	<path fill="#FF5443" d="M270.479,119.03h5.344v14.704h-5.344V119.03z"/>
</g>
<g>
	<path fill="#FF5443" d="M292.982,119.03l-5.695,14.704h-4.523l-5.695-14.704h5.577l1.951,6.69c0.213,0.721,0.37,1.443,0.37,2.184
		h0.116c0-0.741,0.156-1.463,0.37-2.184l1.951-6.69H292.982z"/>
</g>
<g>
	<path fill="#FF5443" d="M296.16,133.734h-5.655l5.11-14.704h5.908l5.247,14.704h-5.655l-0.488-1.833h-4.037L296.16,133.734z
		 M299.69,128.411l-0.623-2.594c-0.156-0.624-0.254-1.267-0.351-1.891h-0.196l-0.975,4.485H299.69z"/>
</g>
<g>
	<path fill="#FF5443" d="M307.879,119.03h5.344v9.985h4.485v4.72h-9.829V119.03z"/>
</g>
<g>
	<path fill="#FF5443" d="M326.578,133.734l5.87-5.207c0.916-0.819,3.237-2.886,3.237-4.193c0-0.663-0.547-1.17-1.21-1.17
		c-1.13,0-1.267,0.956-1.307,1.853h-5.226c0.391-4.29,2.302-6.221,6.729-6.221c3.062,0,6.299,1.774,6.299,5.187
		c0,2.964-2.574,4.798-5.169,5.597v0.156l2.517-0.351l2.867-0.176v4.524H326.578z"/>
</g>
<g>
	<path fill="#FF5443" d="M357.427,126.246c0,4.407-2.477,7.722-7.021,7.722c-4.544,0-7.019-3.315-7.019-7.722
		c0-4.174,2.574-7.45,7.019-7.45C354.853,118.796,357.427,122.072,357.427,126.246z M348.495,126.383
		c0,1.131,0.41,3.237,1.911,3.237c1.503,0,1.911-2.106,1.911-3.237c0-1.209-0.312-3.023-1.911-3.023
		C348.806,123.359,348.495,125.174,348.495,126.383z"/>
</g>
<g>
	<path fill="#FF5443" d="M359.483,119.265l7.566-0.235v14.704h-5.304v-9.985l-2.262,0.156V119.265z"/>
</g>
<g>
	<path fill="#FF5443" d="M369.549,127.085l6.026-8.054h6.318v7.918l1.852-0.137v4.135l-1.989-0.156l0.137,2.944h-5.07l0.194-2.944
		l-7.468,0.156V127.085z M374.424,127.007v0.078l2.593-0.137v-2.204c0-0.409,0.099-0.819,0.234-1.209l-0.116-0.078
		c-0.215,0.448-0.507,0.858-0.819,1.229L374.424,127.007z"/>
</g>
</svg>
